<svg xmlns="http://www.w3.org/2000/svg" width="76.328" height="76.328" viewBox="0 0 76.328 76.328"><defs><style>.a{fill:#4176fa;}.b{fill:#f1f2f2;}</style></defs><g transform="translate(0 0)"><ellipse class="a" cx="38.164" cy="38.164" rx="38.164" ry="38.164"/></g><g transform="translate(15.586 24.21)"><path class="b" d="M59.17,42.9c-11.023,0-11.037,10.982-11.037,11.038,0,0-.755,11,11.037,11,0,0,9.835.559,9.835-7.652h-5.05s.167,3.091-4.617,3.091a4.669,4.669,0,0,1-5.05-4.994H69.173S70.809,42.9,59.17,42.9Zm-4.938,8.631s.616-4.421,5.051-4.421,4.378,4.421,4.378,4.421ZM41.615,48.709s4.378-.322,4.378-5.47-3.581-7.652-8.128-7.652H22.91V64.334H37.864S47,64.615,47,55.843C47,55.843,47.392,48.709,41.615,48.709ZM29.5,40.693h8.365s2.029,0,2.029,2.993-1.189,3.427-2.546,3.427H29.5Zm7.946,18.536H29.5V51.534h8.365s3.036-.028,3.022,3.959C40.887,58.851,38.635,59.2,37.446,59.229ZM52.987,37.28v3.54H64.85V37.28Z" transform="translate(-22.91 -35.587)"/></g></svg>