<svg xmlns="http://www.w3.org/2000/svg" width="143.011" height="250.27" viewBox="0 0 143.011 250.27"><defs><style>.a{fill:#dde3e9;}.a,.b,.c,.d{fill-rule:evenodd;}.b{fill:#c5cfd6;}.c{fill:#afb9c5;}.d{fill:#9ef1c9;}</style></defs><g transform="translate(24.186 0)"><path class="a" d="M26.509,1.182a17.787,17.787,0,0,1,9.029.951c5.957,2.529,7.65,9.566,7.568,15.286-.088,6.156-1.4,12.881,3.285,17.841,2.152,2.281,4.828,4.026,6.941,6.348a30.007,30.007,0,0,1,5.34,8.371c2.408,5.6,3.59,12.188,1.388,18.063-1.939,5.173-6.817,9.842-5.763,15.724,1.1,6.136,7.286,10.827,11.154,15.4,4.377,5.172,8.408,11.783,9.07,18.566.635,6.5-2.195,13.075-6.537,17.989-8.676,9.819-21.718,14.632-34.869,14.6-5.583-.013-11.9-.265-16.723-3.265a9.219,9.219,0,0,1-3.16-3.414,11.128,11.128,0,0,0-3.056-3.059,18.138,18.138,0,0,1-5.821-7.773C-.417,121,3.4,106.385,10.076,95.9c1.583-2.485,2.879-4.876,2.11-7.838-.8-3.092-2.774-5.881-4.519-8.539a68.685,68.685,0,0,1-5.039-7.973A18.092,18.092,0,0,1,1.07,62.2a31.8,31.8,0,0,1,6.847-16.68c3.6-4.738,7.828-9.272,7.838-15.48.01-6.58-4.389-12.433-2.514-19.123a12.748,12.748,0,0,1,4.846-7.273C20.5,2.049,23.676,1.528,26.509,1.182Z" transform="translate(-1 -1)"/><path class="b" d="M23.458,11.237a1.517,1.517,0,0,1,1.93-1.183c1.086.3,1.065,1.319,1.037,2.223a29.873,29.873,0,0,0,.983,8.177c1.389,5.607,3.955,10.773,5.988,16.159S36.38,47.55,35.188,53.244c-1.123,5.369-2.888,10.6-4.038,15.974-1.013,4.738-2.092,9.734-.548,14.46,1.485,4.549,4.768,8.254,7.132,12.365a58.3,58.3,0,0,1,7.356,27.666A51.736,51.736,0,0,1,44.056,137.2c-.6,2.548-1.412,5.991-3.6,7.75-1.007.812-2.729,1.092-3.576-.109-.8-1.126-.1-2.871.155-4.072a61.722,61.722,0,0,0,1.052-15.789,57.015,57.015,0,0,0-2.467-15.1,51.109,51.109,0,0,0-6.433-12.566c-2.721-4.04-5.55-8.088-6.674-12.874-1.142-4.861-.214-9.808,1.027-14.577,1.312-5.044,3.031-9.943,4.808-14.85a26.057,26.057,0,0,0,1.39-14.31C27.854,30.814,22.8,21.534,23.458,11.237Z" transform="translate(0.083 -0.536)"/></g><g transform="translate(33.65 10.516)"><path class="a" d="M95.578,1.664a22.6,22.6,0,0,1,10.087,5.821c5.65,6.089,3.916,15.292.8,22.014-3.357,7.235-8.445,14.507-5.577,22.808,1.318,3.816,3.535,7.272,4.785,11.118A38.754,38.754,0,0,1,107.51,76.1c-.136,7.877-2.23,16.281-7.919,22.084-5.008,5.109-13.2,8.094-15.07,15.6-1.954,7.829,2.823,16.6,4.944,24.012,2.4,8.395,3.633,18.31.825,26.676-2.691,8.018-9.485,14.321-17.176,17.873-15.366,7.1-33.208,6.005-48.616-.871-6.542-2.92-13.823-6.506-17.888-12.561a11.848,11.848,0,0,1-1.9-5.682,14.294,14.294,0,0,0-1.968-5.207A23.385,23.385,0,0,1,.021,145.8c.646-16.452,12.843-31.749,26.222-40.679,3.17-2.116,5.954-4.27,6.618-8.172.693-4.074-.146-8.4-.787-12.449-.633-4-1.617-7.99-1.7-12.05A23.6,23.6,0,0,1,33.49,60.589C37.273,53.6,43.353,48.3,50.337,44.425c6.728-3.73,14.082-6.893,17.375-14.23,3.49-7.776,1.424-16.987,7.158-23.924C77.245,3.4,80.575.849,84.4.192,88.066-.439,92.072.6,95.578,1.664Z" transform="translate(0 0)"/><path class="b" d="M86.314,13.853a1.933,1.933,0,0,1,2.876-.39c1.111.929.555,2.12.048,3.176a39.14,39.14,0,0,0-3.134,10.2c-1.313,7.368-1.018,14.83-1.461,22.274S82.406,63.629,78.03,69.747C73.9,75.517,69.1,80.785,64.942,86.548c-3.666,5.08-7.544,10.432-8.215,16.837-.646,6.165,1.253,12.274,1.864,18.381,1.266,12.643-1.14,24.961-5.888,36.618a67.584,67.584,0,0,1-8.273,15.433c-2.039,2.7-4.789,6.356-8.263,7.294-1.6.433-3.762-.137-4.124-2-.34-1.752,1.389-3.451,2.314-4.741a80.659,80.659,0,0,0,9.5-18.147,74.691,74.691,0,0,0,5.024-19.175,66.826,66.826,0,0,0-.941-18.252c-1.066-6.209-2.254-12.487-1.062-18.744,1.21-6.356,4.886-11.727,8.835-16.724,4.176-5.285,8.752-10.186,13.4-15.066a34.025,34.025,0,0,0,9.12-16.219C81.2,39.341,80.151,25.7,86.314,13.853Z" transform="translate(1.65 0.67)"/></g><g transform="translate(0 58.887)"><path class="b" d="M13.992,0c6.2,0,11.647,3.285,15.4,7.948,4.4,5.458,5.283,12.123,7.068,18.627a16.628,16.628,0,0,0,5.093,8.65c2.435,2,5.526,2.4,8.44,3.378A19.7,19.7,0,0,1,62.379,51c2.266,7-.134,14.063.279,21.159.379,6.517,6.8,10.583,11.974,13.706,5.1,3.081,9.69,5.964,11.225,11.965,1.628,6.365,2.174,13.47-.081,19.757-3.754,10.469-14.742,15.079-25.359,15.793-9.635.649-21.751-.369-28.986-7.363-4.33-4.185-5.9-10.039-5.7-15.863a48.285,48.285,0,0,1,1.766-10.709,48.309,48.309,0,0,0,1.8-7.513c.673-6.819-5.63-8.128-10.994-10A26.163,26.163,0,0,1,3.39,68.8C.3,62.969-1,56.424.856,50.006a21.939,21.939,0,0,1,4.99-8.78c1.025-1.113,2.469-2.042,3.393-3.211.863-1.092.675-2.507.378-3.787-1.375-5.909-5.661-10.8-7.193-16.7C1.04,12.2,1.858,5.578,6.725,2.143A12.713,12.713,0,0,1,13.992,0Z" transform="translate(0 0)"/><path class="c" d="M21.51,14.674c6.569,7,8.355,16.492,8.879,25.695.293,5.16-.012,10.6,1.5,15.608,1.3,4.284,4.338,7.559,7.473,10.654,6.31,6.23,13.347,12.564,15.192,21.581,1.083,5.292.352,10.757,1.848,15.991a43.982,43.982,0,0,0,6.67,13.447c2.346,3.236,5.4,5.712,7.967,8.727.782.921,1.9,2.276,1.58,3.575-.378,1.522-2.316,2-3.692,1.765-3.207-.557-5.906-3.619-8-5.846a50.32,50.32,0,0,1-7.788-10.683,44.9,44.9,0,0,1-5.052-13.882c-.839-5.076-.422-10.366-2.338-15.238-3.225-8.2-11.046-13.034-16.7-19.423-7.046-7.961-6-17.869-5.273-27.661.4-5.382.791-11.459-1.929-16.372-1.038-1.876-3.352-3.624-3.8-5.756C17.64,14.9,19.871,12.928,21.51,14.674Z" transform="translate(0.928 0.722)"/></g><path class="d" d="M28,181c0,40.02,6.531,60.99,41.011,60.99s41.01-20.97,41.01-60.99Z" transform="translate(1.443 8.28)"/></svg>