<svg xmlns="http://www.w3.org/2000/svg" width="838.811" height="554.053" viewBox="0 0 838.811 554.053"><defs><style>.a{fill:#f2f2f2;}.b{fill:rgba(0,0,0,0.1);}.c{fill:#afb9c5;}.c,.e{fill-rule:evenodd;}.d{fill:#c5cfd6;}.e,.f{fill:#dde3e9;}</style></defs><g transform="translate(-112.987 -623.472)"><g transform="translate(425.254 907.681)"><circle class="a" cx="98.972" cy="98.972" r="98.972"/><circle class="b" cx="5.602" cy="5.602" r="5.602" transform="translate(93.369 14.939)"/><circle class="b" cx="5.602" cy="5.602" r="5.602" transform="translate(14.939 93.369)"/><circle class="b" cx="5.602" cy="5.602" r="5.602" transform="translate(171.8 93.369)"/><circle class="b" cx="5.602" cy="5.602" r="5.602" transform="translate(93.369 171.8)"/><path class="c" d="M54.735,17,58.47,82.359H51Z" transform="translate(44.237 14.746)"/><path class="c" d="M3.735,0,7.47,44.817H0Z" transform="translate(134.662 129.381) rotate(135)"/><circle class="d" cx="7.47" cy="7.47" r="7.47" transform="translate(91.502 91.502)"/></g><g transform="translate(112.987 1113.724)"><ellipse class="a" cx="47.571" cy="25.184" rx="47.571" ry="25.184" transform="translate(7.835 13.432)"/><path class="e" d="M110.811,55.965C110.811,25.057,86.005,0,55.406,0S0,25.057,0,55.965" transform="translate(0 0)"/></g><path class="f" d="M0,0H6.1V499.655H0Z" transform="translate(165.393 623.472)"/><g transform="translate(840.987 1113.724)"><ellipse class="a" cx="47.571" cy="25.184" rx="47.571" ry="25.184" transform="translate(7.835 13.432)"/><path class="e" d="M110.811,55.965C110.811,25.057,86.005,0,55.406,0S0,25.057,0,55.965" transform="translate(0 0)"/></g><path class="f" d="M0,0H6.1V499.655H0Z" transform="translate(893.393 623.472)"/><g transform="translate(213.725 1069.318)"><ellipse class="a" cx="35.558" cy="20.324" rx="35.558" ry="20.324" transform="translate(5.857 10.84)"/><path class="e" d="M82.829,45.165C82.829,20.221,64.287,0,41.414,0S0,20.221,0,45.165" transform="translate(0)"/></g><rect class="f" width="5.597" height="466.59" transform="translate(252.9 628.472)"/><g transform="translate(751.725 1069.318)"><ellipse class="a" cx="35.558" cy="20.324" rx="35.558" ry="20.324" transform="translate(5.857 10.84)"/><path class="e" d="M82.829,45.165C82.829,20.221,64.287,0,41.414,0S0,20.221,0,45.165" transform="translate(0)"/></g><rect class="f" width="5.597" height="466.59" transform="translate(790.9 628.472)"/></g></svg>