<svg xmlns="http://www.w3.org/2000/svg" xmlns:xlink="http://www.w3.org/1999/xlink" width="503" height="318.417" viewBox="0 0 503 318.417"><defs><style>.a,.b,.c,.g{fill:none;}.a,.b,.g,.j{stroke:#38456e;}.b{stroke-width:201px;}.c{stroke:#2ed887;stroke-linecap:round;stroke-width:6px;}.d{fill:#2e4471;font-size:40px;font-family:Lato-Regular, Lato;}.e{fill:#7485a5;opacity:0.3;}.f{fill:#fff;}.g{stroke-miterlimit:10;stroke-width:5px;}.h{clip-path:url(#a);}.i{clip-path:url(#b);}.j{fill:#38456e;}</style><clipPath id="a"><rect class="a" width="91.114" height="91.114"/></clipPath><clipPath id="b"><rect class="b" width="84.919" height="74.563"/></clipPath></defs><g transform="translate(-271 -5459.583)"><line class="c" x2="246" transform="translate(399.5 5653.5)"/><g transform="translate(-16 28)"><text class="d" transform="translate(287 5640)"><tspan x="17.4" y="39">Lugar: Universidad de EAN</tspan></text><text class="d" transform="translate(287 5702)"><tspan x="58.8" y="39">Cl. 71 # 9 - 84- Bogota</tspan></text><g transform="translate(473 5434.083)"><g transform="translate(0 0)"><ellipse class="e" cx="27.353" cy="8.38" rx="27.353" ry="8.38" transform="translate(38.565 146.148)"/><g transform="translate(0 0)"><path class="f" d="M-373.56,243.195q-7.744.791-15.487,1.3c-5.867.4-11.394-.97-15.059,4.022q-5.944,8.122-11.569,16.138a2.25,2.25,0,0,1-3.771,0q-5.6-7.994-11.57-16.138c-3.664-4.992-9.192-3.623-15.059-4.022q-7.744-.513-15.488-1.3c-10.369-1.151-19.912-10.673-20.7-20.587q-1.622-21.99-1.08-43.981.5-20.257,2.834-40.513c1.23-9.912,10.772-19.908,20.7-21.443a293.939,293.939,0,0,1,42.247-3.064,293.939,293.939,0,0,1,42.247,3.064c9.929,1.535,19.472,11.531,20.7,21.443q2.542,22.05,2.908,44.1.335,20.2-1.154,40.393C-353.648,232.522-363.191,242.044-373.56,243.195Z" transform="translate(483.479 -113.607)"/><path class="g" d="M-373.56,243.195q-7.744.791-15.487,1.3c-5.867.4-11.394-.97-15.059,4.022q-5.944,8.122-11.569,16.138a2.25,2.25,0,0,1-3.771,0q-5.6-7.994-11.57-16.138c-3.664-4.992-9.192-3.623-15.059-4.022q-7.744-.513-15.488-1.3c-10.369-1.151-19.912-10.673-20.7-20.587q-1.622-21.99-1.08-43.981.5-20.257,2.834-40.513c1.23-9.912,10.772-19.908,20.7-21.443a293.939,293.939,0,0,1,42.247-3.064,293.939,293.939,0,0,1,42.247,3.064c9.929,1.535,19.472,11.531,20.7,21.443q2.542,22.05,2.908,44.1.335,20.2-1.154,40.393C-353.648,232.522-363.191,242.044-373.56,243.195Z" transform="translate(483.479 -113.607)"/></g></g><g transform="translate(20.361 18.899)"><g class="h" transform="translate(0)"><g transform="translate(3.098 8.276)"><g class="i"><g transform="translate(0 0.207)"><path class="j" d="M-328.9,276.664h-49.488a5.308,5.308,0,0,0-5.3,5.3V285.5a33.5,33.5,0,0,0,18.18,29.853,1.771,1.771,0,0,0,2.383-.76,1.771,1.771,0,0,0-.761-2.383A29.97,29.97,0,0,1-380.16,285.5v-3.535a1.768,1.768,0,0,1,1.768-1.767H-328.9a1.769,1.769,0,0,1,1.768,1.767V285.5a29.958,29.958,0,0,1-16.271,26.706,1.771,1.771,0,0,0-.76,2.383,1.772,1.772,0,0,0,1.573.958,1.742,1.742,0,0,0,.81-.2A33.482,33.482,0,0,0-323.6,285.5v-3.535a5.309,5.309,0,0,0-5.3-5.3" transform="translate(394.298 -248.386)"/><path class="j" d="M-333.586,381.3a1.771,1.771,0,0,0-1.633-1.092h-77.768a1.77,1.77,0,0,0-1.633,1.092,1.762,1.762,0,0,0,.382,1.926l3.963,3.966a12.3,12.3,0,0,0,8.748,3.624h54.841a12.317,12.317,0,0,0,8.756-3.624l3.963-3.966a1.764,1.764,0,0,0,.382-1.926m-6.847,3.393a8.788,8.788,0,0,1-6.25,2.588h-54.844a8.788,8.788,0,0,1-6.249-2.588l-.947-.947h69.238Z" transform="translate(414.757 -316.586)"/><path class="j" d="M-219.808,298.634c-4.762-3.062-12.368.262-13.221.647a1.769,1.769,0,0,0-.877,2.343,1.767,1.767,0,0,0,2.344.877c1.7-.775,7.169-2.609,9.841-.888,1.206.774,1.8,2.276,1.8,4.581,0,7.077-14.273,11.354-19.784,12.408l-1.252.247a1.767,1.767,0,0,0-1.392,2.075,1.768,1.768,0,0,0,1.732,1.425,1.6,1.6,0,0,0,.342-.036l1.241-.244c.926-.177,22.648-4.437,22.648-15.875,0-3.556-1.152-6.1-3.418-7.561" transform="translate(301.225 -262.011)"/><path class="j" d="M-264.855,207.3a10.589,10.589,0,0,0,0-12.806,1.762,1.762,0,0,0-2.485-.276,1.766,1.766,0,0,0-.276,2.486,7.129,7.129,0,0,1,0,8.395,10.58,10.58,0,0,0,0,12.807,1.759,1.759,0,0,0,1.382.664,1.759,1.759,0,0,0,1.1-.389,1.766,1.766,0,0,0,.276-2.485,7.119,7.119,0,0,1,0-8.4" transform="translate(319.266 -193.824)"/><path class="j" d="M-295.958,207.3a10.578,10.578,0,0,0,0-12.806,1.765,1.765,0,0,0-2.485-.276,1.766,1.766,0,0,0-.276,2.486,7.119,7.119,0,0,1,0,8.395,10.591,10.591,0,0,0,0,12.807,1.759,1.759,0,0,0,1.382.664,1.766,1.766,0,0,0,1.1-.389,1.765,1.765,0,0,0,.276-2.485,7.131,7.131,0,0,1,0-8.4" transform="translate(339.75 -193.826)"/><path class="j" d="M-326.989,207.307a10.591,10.591,0,0,0,0-12.807,1.761,1.761,0,0,0-2.485-.276,1.767,1.767,0,0,0-.276,2.482,7.13,7.13,0,0,1,0,8.4,10.579,10.579,0,0,0,0,12.807,1.76,1.76,0,0,0,1.382.664,1.775,1.775,0,0,0,1.1-.385,1.765,1.765,0,0,0,.276-2.485,7.118,7.118,0,0,1,0-8.4" transform="translate(360.191 -193.83)"/></g></g></g></g></g></g></g></g></svg>