<svg xmlns="http://www.w3.org/2000/svg" width="64.711" height="64.711" viewBox="0 0 64.711 64.711"><defs><style>.a{fill:#0077b7;}</style></defs><path class="a" d="M58.857,0h-53A5.854,5.854,0,0,0,0,5.854v53a5.854,5.854,0,0,0,5.854,5.854h53a5.854,5.854,0,0,0,5.854-5.854v-53A5.854,5.854,0,0,0,58.857,0ZM20.024,55.876a1.7,1.7,0,0,1-1.7,1.7H11.069a1.7,1.7,0,0,1-1.7-1.7v-30.4a1.7,1.7,0,0,1,1.7-1.7h7.251a1.7,1.7,0,0,1,1.7,1.7ZM14.7,20.909a6.889,6.889,0,1,1,6.889-6.889A6.889,6.889,0,0,1,14.7,20.909Zm43.225,35.1a1.566,1.566,0,0,1-1.566,1.566H48.572a1.566,1.566,0,0,1-1.566-1.566V41.755c0-2.127.624-9.321-5.559-9.321-4.8,0-5.768,4.924-5.964,7.133V56.013a1.566,1.566,0,0,1-1.566,1.566H26.392a1.566,1.566,0,0,1-1.566-1.566V25.341a1.566,1.566,0,0,1,1.566-1.566h7.526a1.566,1.566,0,0,1,1.566,1.566v2.652c1.778-2.669,4.421-4.728,10.047-4.728,12.46,0,12.388,11.641,12.388,18.036V56.013Z"/></svg>