<svg xmlns="http://www.w3.org/2000/svg" width="128.411" height="128.412" viewBox="0 0 128.411 128.412"><defs><style>.a{fill:#38456e;}</style></defs><path class="a" d="M115.871,11.035H103.916V7.524a7.524,7.524,0,0,0-15.048,0v3.511H46.733V7.524a7.524,7.524,0,1,0-15.048,0v3.6a2.5,2.5,0,0,0-.669-.093H21.023a12.554,12.554,0,0,0-12.54,12.54V66.3a2.508,2.508,0,0,0,5.016,0V36.868h90.417a2.508,2.508,0,0,0,0-5.016H13.5V23.576a7.533,7.533,0,0,1,7.524-7.524h9.993a2.513,2.513,0,0,0,.669-.093v3.228a7.524,7.524,0,0,0,15.048,0V16.051H88.868v3.135a7.524,7.524,0,0,0,15.048,0V16.051h11.955a7.533,7.533,0,0,1,7.524,7.524v95.3a4.516,4.516,0,0,1-9.032,0v-6.488a2.508,2.508,0,0,0-2.508-2.508H82.682a2.508,2.508,0,1,0,0,5.016h26.666v3.98a9.474,9.474,0,0,0,1.14,4.516H9.531a4.52,4.52,0,0,1-4.514-4.514V114.9H61.152a2.508,2.508,0,1,0,0-5.016H36.093a20.566,20.566,0,1,0-26.8,0H2.508A2.508,2.508,0,0,0,0,112.391v6.49a9.541,9.541,0,0,0,9.531,9.531H118.879a9.543,9.543,0,0,0,9.532-9.532v-95.3A12.554,12.554,0,0,0,115.871,11.035ZM41.717,19.186a2.508,2.508,0,1,1-5.016,0V7.524a2.508,2.508,0,0,1,5.016,0Zm57.183,0a2.508,2.508,0,1,1-5.016,0V7.524a2.508,2.508,0,1,1,5.016,0ZM7.143,94.3a15.55,15.55,0,1,1,15.55,15.55A15.567,15.567,0,0,1,7.143,94.3Z"/><g transform="translate(113.173 31.852)"><path class="a" d="M455.521,127.735a2.506,2.506,0,1,0,.735,1.773A2.526,2.526,0,0,0,455.521,127.735Z" transform="translate(-451.24 -127)"/></g><g transform="translate(70.621 109.885)"><path class="a" d="M285.861,438.862a2.509,2.509,0,1,0,.735,1.773A2.524,2.524,0,0,0,285.861,438.862Z" transform="translate(-281.58 -438.13)"/></g><g transform="translate(47.212 76.244)"><path class="a" d="M197.776,304a9.531,9.531,0,1,0,9.531,9.531A9.541,9.541,0,0,0,197.776,304Zm0,14.045a4.514,4.514,0,1,1,4.514-4.514A4.52,4.52,0,0,1,197.776,318.045Z" transform="translate(-188.245 -304)"/></g><g transform="translate(70.621 76.244)"><path class="a" d="M291.109,304a9.531,9.531,0,1,0,9.531,9.531A9.541,9.541,0,0,0,291.109,304Zm0,14.045a4.514,4.514,0,1,1,4.514-4.514A4.52,4.52,0,0,1,291.109,318.045Z" transform="translate(-281.578 -304)"/></g><g transform="translate(94.029 76.244)"><path class="a" d="M384.443,304a9.531,9.531,0,1,0,9.53,9.531A9.541,9.541,0,0,0,384.443,304Zm0,14.045a4.514,4.514,0,1,1,4.514-4.514A4.52,4.52,0,0,1,384.443,318.045Z" transform="translate(-374.912 -304)"/></g><g transform="translate(23.804 50.161)"><path class="a" d="M104.443,200a9.531,9.531,0,1,0,9.531,9.531A9.541,9.541,0,0,0,104.443,200Zm0,14.045a4.514,4.514,0,1,1,4.514-4.514A4.52,4.52,0,0,1,104.443,214.045Z" transform="translate(-94.912 -200)"/></g><g transform="translate(70.621 50.161)"><path class="a" d="M291.109,200a9.531,9.531,0,1,0,9.531,9.531A9.541,9.541,0,0,0,291.109,200Zm0,14.045a4.514,4.514,0,1,1,4.514-4.514A4.52,4.52,0,0,1,291.109,214.045Z" transform="translate(-281.578 -200)"/></g><g transform="translate(94.029 50.161)"><path class="a" d="M384.443,200a9.531,9.531,0,1,0,9.53,9.531A9.541,9.541,0,0,0,384.443,200Zm0,14.045a4.514,4.514,0,1,1,4.514-4.514A4.52,4.52,0,0,1,384.443,214.045Z" transform="translate(-374.912 -200)"/></g><g transform="translate(47.212 50.161)"><path class="a" d="M197.776,200a9.531,9.531,0,1,0,9.531,9.531A9.541,9.541,0,0,0,197.776,200Zm0,14.045a4.514,4.514,0,1,1,4.514-4.514A4.52,4.52,0,0,1,197.776,214.045Z" transform="translate(-188.245 -200)"/></g><g transform="translate(12.84 87.455)"><path class="a" d="M69.982,349.435a2.508,2.508,0,0,0-3.547,0L58.267,357.6l-2.791-2.791a2.508,2.508,0,0,0-3.547,3.547l4.565,4.564a2.508,2.508,0,0,0,3.547,0l9.941-9.941A2.508,2.508,0,0,0,69.982,349.435Z" transform="translate(-51.194 -348.7)"/></g></svg>