<svg xmlns="http://www.w3.org/2000/svg" width="124.243" height="315.644" viewBox="0 0 124.243 315.644"><defs><style>.a{fill:#a8efcd;}.a,.b,.c{fill-rule:evenodd;}.b{fill:#6bcd9e;}.c{fill:#7bedb6;}.d{fill:#dfe4ea;}.e{fill:#c5cfd6;}</style></defs><g transform="translate(14.551 0)"><path class="a" d="M3.426.233c9.887,23.493,26.694,39.816,35.6,64.244,5.279,14.487,7.479,30.238,7.612,46.37.073,8.762-.08,17.531-.121,26.292-.04,8.545-.272,17.035-1,25.526-.729,8.535-1.545,16.969-1.9,25.556-.28,6.691-.408,14.475-2.676,20.578-1.8,4.854-6.388,5.565-7.6-.322a47.057,47.057,0,0,1-.516-10.29c.1-4.315.347-8.623.475-12.938.515-17.313-.152-34.629.2-51.949.341-16.923,2.516-33.826.109-50.636-1.987-13.881-7.037-25.8-12.839-37.228C15.171,34.442,9.1,23.715,5.323,11.209A60.265,60.265,0,0,1,3,.034Q3.263-.089,3.426.233Z" transform="translate(0.358 0)"/><path class="b" d="M1.09,41.691c1.958,1.414,3.052,3.482,4.375,5.522,1.646,2.537,3.58,4.827,5.225,7.366,3.43,5.293,6.444,10.91,9.571,16.417a107.527,107.527,0,0,1,12.677,33.687c2.314,12.533,2.938,25.468,3.909,38.187,1.03,13.481,2.066,27.06,2.2,40.594.061,6.063.389,12.5-.339,18.52-.453,3.747-2.145,6.942-5.958,6.912-8.1-.065-11.9-9.036-13.491-16.393-2.339-10.835-2.805-22.342-2.435-33.422.447-13.36,2.766-26.519,3.769-39.827,1.063-14.089.462-27.929-4.381-41.194-2.447-6.7-5.287-13.247-7.837-19.906a64.35,64.35,0,0,0-3.442-8.388C3.3,46.829,1.278,44.163,0,41Z" transform="translate(0 4.892)"/><path class="a" d="M86.4,16.579,87.148,16c-.715,3.014-2.007,5.462-3,8.217A67.043,67.043,0,0,0,82.217,32.2c-1.4,6.359-3.027,12.574-4.353,18.987-2.625,12.69-2.129,26.36-.407,40.439,1.626,13.3,4.2,26.578,5.423,39.874a183.059,183.059,0,0,1,.484,32.918c-.658,7.145-2.817,15.676-8.7,14.955-2.769-.339-4.213-3.672-4.795-7.434-.935-6.042-1.13-12.4-1.495-18.4-.813-13.412-.975-26.782-1.136-40.055-.152-12.523-.571-25.294.266-37.5a114.939,114.939,0,0,1,6.941-32.189c1.9-5.16,3.712-10.44,5.848-15.358,1.024-2.359,2.276-4.443,3.3-6.8C84.419,19.738,85.075,17.792,86.4,16.579Z" transform="translate(7.993 1.909)"/><path class="a" d="M3.234,76.338c1.071-1.8,3.429,4.132,3.788,4.878q-.228-.557-.458-1.112a49.354,49.354,0,0,1,5.28,11.269c1.2,4.013,2.224,8.106,3.347,12.148,2.107,7.582,4.825,14.949,6.733,22.6A73.54,73.54,0,0,1,23.8,148.615a192.165,192.165,0,0,0-.208,24.162c.261,3.826,1.5,7.39,2.356,11.072s1.525,7.423,2.533,11.064c.231-.475.261,1.111.26,1.231a7.647,7.647,0,0,1-.426,2.535c-.752,2.218-2.159,4.1-4.3,4.715-3.869,1.1-7.461-2.414-8.709-6.13a101.7,101.7,0,0,1-3.629-16.829,79.337,79.337,0,0,1-.735-15.518c.458-10.274,2.317-20.414,2.82-30.685.547-11.182-1.668-21.689-3.523-32.573A95.119,95.119,0,0,0,6.757,86.223a43.384,43.384,0,0,0-2.584-5.677C3.625,79.483,2.518,77.587,3.234,76.338Z" transform="translate(0.358 9.067)"/><path class="c" d="M32.475,64.956c-.444,12.81-1.209,25.523-2.917,38.2-1.743,12.935-3.745,25.826-5.422,38.772-1.633,12.6-3.344,25.414-3.116,38.193.168,9.411-1.393,25.334,9.061,29.979,10.587,4.7,12.858-15.386,13.553-22.017,1.332-12.722.9-25.578.254-38.37-.664-13.129-1.772-26.191-3.145-39.271-1.525-14.53-2.722-29.125-3.683-43.7-.475-7.207-.592-14.4-.461-21.611.124-6.8-.134-13.676-2.553-20.134l-.379.275" transform="translate(2.505 2.983)"/><path class="b" d="M81.524,97.666c-1.9,2.774-3.823,5.52-5.621,8.458-3.217,5.257-6.127,11.1-7,18.62-1.832,15.73-.362,32.72-.008,48.932.073,3.312-.346,6.526.959,9.679,1.184,2.859,3.4,5.037,5.507,5.026,4.517-.026,3.828-11.087,3.835-15.955.014-8.532-.943-17.152-.861-25.677a178.268,178.268,0,0,1,1.82-24.936,143.678,143.678,0,0,1,5.451-23.19c.333-1.01,2.719-8.811.464-7.467" transform="translate(8.113 10.857)"/><path class="c" d="M63.964,22c-2.97,0-2.951,14.8-3.041,16.705-.323,6.862-.247,13.726-.451,20.589-.447,14.978-1,30.087-3.245,44.892-1.211,7.97-2.616,15.905-4.126,23.814-1.515,7.933-3.548,15.855-4.545,23.888-.957,7.722-.416,15.6-.285,23.355a204.453,204.453,0,0,0,1.39,23.369c.252,1.91.548,3.813.865,5.712.264,1.583.11,3.545.556,5.048.715,2.408,3.782,3.2,5.848,2.82,5.588-1.02,9.158-8.037,11.067-13.163,2.438-6.547,3.731-13.648,5.008-20.546A179.584,179.584,0,0,0,75.7,154.775c.808-16.172-.229-32.36-1.387-48.48-.644-8.965-1.389-17.891-2.528-26.8-1.134-8.871-2.589-17.7-3.537-26.6-.688-6.466-1.367-12.941-1.812-19.431C66.324,31.915,66.235,22,63.964,22" transform="translate(5.727 2.625)"/><path class="b" d="M62.155,132.234C61.671,116.691,55.423,48.42,54,29.625,53.646,24.92,50.224,5.333,49.78,0c-1.2,1.507-1.1,24.971-1.088,30.363.014,5.333-.647,10.578-.988,15.882-.347,5.412-8.348,75.313-9.387,80.513C36.252,137.1,34.87,147.722,33.8,158.3c-1.039,10.31-2.654,21.188-1.264,31.553a31.676,31.676,0,0,0,1.648,6.926c.889,2.368,1.5,4.559,2.213,7.037,1.149,3.991,3.227,7.495,6.421,9.144,6.547,3.379,10.063-4.27,11.845-10.93a178.221,178.221,0,0,0,5.53-32.614c.948-12.358,2.346-24.741,1.959-37.183" transform="translate(3.818 0)"/></g><g transform="translate(0 177.97)"><rect class="d" width="101.857" height="101.857" rx="2" transform="translate(11.193)"/><rect class="e" width="11.193" height="126.482" rx="2" transform="translate(0 11.193)"/><rect class="e" width="11.193" height="126.482" rx="2" transform="translate(55.965 11.193)"/><rect class="e" width="11.193" height="126.482" rx="2" transform="translate(113.05 11.193)"/></g></svg>